# xmcd CD database file
#
# Track frame offsets:
#	150
#	17605
#	32405
#	39712
#	52782
#	63467
#	73677
#	95312
#	113130
#	131325
#	146075
#	154882
#	168157
#	182675
#	194250
#	208255
#	213340
#	222125
#	233490
#	246762
#
# Disc length: 3448 seconds
#
# Revision: 15
# Processed by: cddbd v1.5.2PL0 Copyright (c) Steve Scherf et al.
# Submitted via: CDex 1.70beta3
#
DISCID=140d7614
DTITLE=植松伸夫 - Final Fantasy VI - Original Sound Version [CD2]
DYEAR=1994
DGENRE=Soundtrack
TTITLE0=ティナのテーマ
TTITLE1=運命のコイン
TTITLE2=テクノdeチョコボ
TTITLE3=永遠に、レイチェル
TTITLE4=スラム・シャッフル
TTITLE5=スピナッチ・ラグ
TTITLE6=序曲
TTITLE7=アリア
TTITLE8=婚礼のワルツ～決闘
TTITLE9=大団円
TTITLE10=セッツァーのテーマ
TTITLE11=ジョニー・C・バッド
TTITLE12=ガストラ帝国
TTITLE13=魔導研究所
TTITLE14=飛空挺ブラックジャック
TTITLE15=ん？2
TTITLE16=モグのテーマ
TTITLE17=ストラゴスのテーマ
TTITLE18=リルムのテーマ
TTITLE19=幻獣界
EXTD=YEAR: 1994
EXTT0=
EXTT1=
EXTT2=
EXTT3=
EXTT4=
EXTT5=
EXTT6=
EXTT7=
EXTT8=
EXTT9=
EXTT10=
EXTT11=
EXTT12=
EXTT13=
EXTT14=
EXTT15=
EXTT16=
EXTT17=
EXTT18=
EXTT19=
PLAYORDER=
